<svg width="153" height="129" viewBox="0 0 153 129" fill="none" xmlns="http://www.w3.org/2000/svg">
<rect x="1.5" y="35.5" width="150" height="92" stroke="#FFE7D4" stroke-width="3"/>
<path d="M44.6437 66.376V67H38.8597V66.376L40.1797 66.232C40.4357 66.2 40.5877 66.136 40.6357 66.04C40.6837 65.928 40.7077 65.6 40.7077 65.056V52.048L35.7157 65.08H34.0837L29.0677 52.048V65.056C29.0677 65.6 29.0917 65.928 29.1397 66.04C29.1877 66.136 29.3397 66.2 29.5957 66.232L30.9157 66.376V67H26.3317V66.376L27.6517 66.232C27.9077 66.2 28.0597 66.136 28.1077 66.04C28.1557 65.928 28.1797 65.6 28.1797 65.056V52.624C28.1797 52.08 28.1557 51.76 28.1077 51.664C28.0597 51.552 27.9077 51.48 27.6517 51.448L26.3317 51.328V50.68H30.7237L35.5477 63.28L40.3717 50.68H44.6437V51.328L43.3237 51.448C43.0677 51.48 42.9157 51.552 42.8677 51.664C42.8197 51.76 42.7957 52.08 42.7957 52.624V65.056C42.7957 65.6 42.8197 65.928 42.8677 66.04C42.9157 66.136 43.0677 66.2 43.3237 66.232L44.6437 66.376ZM50.3401 66.376V67H45.7801V66.376L47.0761 66.232C47.2521 66.216 47.3801 66.192 47.4601 66.16C47.5401 66.112 47.6121 66.016 47.6761 65.872C47.7561 65.712 47.8521 65.44 47.9641 65.056L52.5961 50.68H54.1081L58.7881 65.056C58.9001 65.44 58.9881 65.712 59.0521 65.872C59.1321 66.016 59.2121 66.112 59.2921 66.16C59.3721 66.192 59.4921 66.216 59.6521 66.232L60.9721 66.376V67H55.1401V66.376L56.4601 66.232C56.7161 66.2 56.8521 66.136 56.8681 66.04C56.9001 65.928 56.8281 65.6 56.6521 65.056L55.6681 61.984H49.8121L48.8281 65.056C48.6521 65.6 48.5721 65.928 48.5881 66.04C48.6201 66.136 48.7641 66.2 49.0201 66.232L50.3401 66.376ZM50.0521 61.216H55.4281L52.7401 52.864L50.0521 61.216ZM62.0504 51.328V50.68H68.7224C70.2904 50.68 71.4904 51.056 72.3224 51.808C73.1704 52.544 73.5944 53.528 73.5944 54.76V55.504C73.5944 56.48 73.3224 57.312 72.7784 58C72.2504 58.672 71.4904 59.136 70.4984 59.392L73.5704 65.056C73.7784 65.44 73.9304 65.712 74.0264 65.872C74.1224 66.016 74.2104 66.112 74.2904 66.16C74.3864 66.192 74.5144 66.216 74.6744 66.232L75.7544 66.376V67H72.1304L68.3384 59.608H65.9864V65.056C65.9864 65.616 66.0104 65.944 66.0584 66.04C66.1064 66.136 66.2584 66.2 66.5144 66.232L67.8344 66.376V67H62.0504V66.376L63.3704 66.232C63.6264 66.2 63.7784 66.136 63.8264 66.04C63.8744 65.944 63.8984 65.616 63.8984 65.056V52.624C63.8984 52.064 63.8744 51.736 63.8264 51.64C63.7784 51.544 63.6264 51.48 63.3704 51.448L62.0504 51.328ZM68.7224 51.448H65.9864V58.84H68.7224C69.5544 58.84 70.2024 58.576 70.6664 58.048C71.1464 57.504 71.3864 56.688 71.3864 55.6V54.664C71.3864 53.576 71.1464 52.768 70.6664 52.24C70.2024 51.712 69.5544 51.448 68.7224 51.448ZM76.1636 50.68H88.9316V54.592H88.3076L87.6116 52.072C87.5636 51.88 87.5076 51.744 87.4436 51.664C87.3956 51.568 87.2916 51.512 87.1316 51.496C86.9716 51.464 86.6996 51.448 86.3156 51.448H83.6036V65.056C83.6036 65.616 83.6276 65.944 83.6756 66.04C83.7236 66.136 83.8756 66.2 84.1316 66.232L85.4516 66.376V67H79.6676V66.376L80.9876 66.232C81.2436 66.2 81.3956 66.136 81.4436 66.04C81.4916 65.944 81.5156 65.616 81.5156 65.056V51.448H78.7796C78.4116 51.448 78.1396 51.464 77.9636 51.496C77.8036 51.512 77.6916 51.568 77.6276 51.664C77.5796 51.744 77.5316 51.88 77.4836 52.072L76.7876 54.592H76.1636V50.68ZM90.4098 51.328V50.68H96.1938V51.328L94.8738 51.448C94.6178 51.48 94.4658 51.544 94.4178 51.64C94.3698 51.736 94.3458 52.064 94.3458 52.624V65.056C94.3458 65.616 94.3698 65.944 94.4178 66.04C94.4658 66.136 94.6178 66.2 94.8738 66.232L96.1938 66.376V67H90.4098V66.376L91.7298 66.232C91.9858 66.2 92.1378 66.136 92.1858 66.04C92.2338 65.944 92.2578 65.616 92.2578 65.056V52.624C92.2578 52.064 92.2338 51.736 92.1858 51.64C92.1378 51.544 91.9858 51.48 91.7298 51.448L90.4098 51.328ZM108.408 51.328V50.68H112.992V51.328L111.672 51.448C111.416 51.48 111.264 51.552 111.216 51.664C111.168 51.76 111.144 52.08 111.144 52.624V67H109.968L101.232 52.264V65.056C101.232 65.6 101.256 65.928 101.304 66.04C101.352 66.136 101.504 66.2 101.76 66.232L103.08 66.376V67H98.4958V66.376L99.8158 66.232C100.072 66.2 100.224 66.136 100.272 66.04C100.32 65.928 100.344 65.6 100.344 65.056V52.624C100.344 52.08 100.32 51.76 100.272 51.664C100.224 51.552 100.072 51.48 99.8158 51.448L98.4958 51.328V50.68H102.648L110.256 63.544V52.624C110.256 52.08 110.232 51.76 110.184 51.664C110.136 51.552 109.984 51.48 109.728 51.448L108.408 51.328ZM118.262 66.376V67H113.702V66.376L114.998 66.232C115.174 66.216 115.302 66.192 115.382 66.16C115.462 66.112 115.534 66.016 115.598 65.872C115.678 65.712 115.774 65.44 115.886 65.056L120.518 50.68H122.03L126.71 65.056C126.822 65.44 126.91 65.712 126.974 65.872C127.054 66.016 127.134 66.112 127.214 66.16C127.294 66.192 127.414 66.216 127.574 66.232L128.894 66.376V67H123.062V66.376L124.382 66.232C124.638 66.2 124.774 66.136 124.79 66.04C124.822 65.928 124.75 65.6 124.574 65.056L123.59 61.984H117.734L116.75 65.056C116.574 65.6 116.494 65.928 116.51 66.04C116.542 66.136 116.686 66.2 116.942 66.232L118.262 66.376ZM117.974 61.216H123.35L120.662 52.864L117.974 61.216Z" fill="#F5F5F5"/>
<path d="M16.0684 84.84V83.8H25.7084V84.84L23.5084 85.08C23.0818 85.1067 22.8284 85.2133 22.7484 85.4C22.6684 85.56 22.6284 86.1067 22.6284 87.04V98.8L32.6284 86.8C33.2951 86.0267 33.6284 85.56 33.6284 85.4C33.6551 85.2133 33.4418 85.1067 32.9884 85.08L30.9484 84.84V83.8H38.5484V84.84L36.5084 85.08C36.2418 85.1067 36.0284 85.16 35.8684 85.24C35.7084 85.2933 35.5218 85.44 35.3084 85.68C35.1218 85.8933 34.8018 86.2667 34.3484 86.8L28.1084 94.32L35.7084 107.76C36.0551 108.373 36.3084 108.813 36.4684 109.08C36.6551 109.347 36.8418 109.52 37.0284 109.6C37.2151 109.653 37.4684 109.693 37.7884 109.72L39.7084 109.96V111H33.4684L25.7884 97.12L22.6284 100.88V107.76C22.6284 108.693 22.6684 109.24 22.7484 109.4C22.8284 109.56 23.0818 109.667 23.5084 109.72L25.7084 109.96V111H16.0684V109.96L18.2684 109.72C18.6951 109.667 18.9484 109.56 19.0284 109.4C19.1084 109.24 19.1484 108.693 19.1484 107.76V87.04C19.1484 86.1067 19.1084 85.56 19.0284 85.4C18.9484 85.2133 18.6951 85.1067 18.2684 85.08L16.0684 84.84ZM41.8106 84.88V83.8H52.9306C55.544 83.8 57.544 84.4267 58.9306 85.68C60.344 86.9067 61.0506 88.5467 61.0506 90.6V91.84C61.0506 93.4667 60.5973 94.8533 59.6906 96C58.8106 97.12 57.544 97.8933 55.8906 98.32L61.0106 107.76C61.3573 108.4 61.6106 108.853 61.7706 109.12C61.9306 109.36 62.0773 109.52 62.2106 109.6C62.3706 109.653 62.584 109.693 62.8506 109.72L64.6506 109.96V111H58.6106L52.2906 98.68H48.3706V107.76C48.3706 108.693 48.4106 109.24 48.4906 109.4C48.5706 109.56 48.824 109.667 49.2506 109.72L51.4506 109.96V111H41.8106V109.96L44.0106 109.72C44.4373 109.667 44.6906 109.56 44.7706 109.4C44.8506 109.24 44.8906 108.693 44.8906 107.76V87.04C44.8906 86.1067 44.8506 85.56 44.7706 85.4C44.6906 85.24 44.4373 85.1333 44.0106 85.08L41.8106 84.88ZM52.9306 85.08H48.3706V97.4H52.9306C54.3173 97.4 55.3973 96.96 56.1706 96.08C56.9706 95.1733 57.3706 93.8133 57.3706 92V90.44C57.3706 88.6267 56.9706 87.28 56.1706 86.4C55.3973 85.52 54.3173 85.08 52.9306 85.08ZM84.9306 104.48H85.9706V111H66.8106V109.96L69.0106 109.72C69.4373 109.667 69.6906 109.56 69.7706 109.4C69.8506 109.24 69.8906 108.693 69.8906 107.76V87.04C69.8906 86.1067 69.8506 85.56 69.7706 85.4C69.6906 85.24 69.4373 85.1333 69.0106 85.08L66.8106 84.88V83.8H85.4506V90.32H84.4506L83.2906 86.12C83.2106 85.8 83.1173 85.5733 83.0106 85.44C82.9306 85.28 82.7573 85.1867 82.4906 85.16C82.224 85.1067 81.7706 85.08 81.1306 85.08H73.3706V96.64H78.7306C79.3706 96.64 79.824 96.6267 80.0906 96.6C80.3573 96.5467 80.5306 96.4533 80.6106 96.32C80.7173 96.16 80.8106 95.92 80.8906 95.6L81.6506 92.6H82.6906V101.96H81.6506L80.8906 98.96C80.8106 98.64 80.7173 98.4133 80.6106 98.28C80.5306 98.12 80.3573 98.0267 80.0906 98C79.824 97.9467 79.3706 97.92 78.7306 97.92H73.3706V109.72H81.6106C82.2506 109.72 82.704 109.707 82.9706 109.68C83.2373 109.627 83.4106 109.533 83.4906 109.4C83.5973 109.24 83.6906 109 83.7706 108.68L84.9306 104.48ZM90.0138 84.88V83.8H99.6538V84.88L97.4538 85.08C97.0271 85.1333 96.7738 85.24 96.6938 85.4C96.6138 85.56 96.5738 86.1067 96.5738 87.04V107.76C96.5738 108.693 96.6138 109.24 96.6938 109.4C96.7738 109.56 97.0271 109.667 97.4538 109.72L99.6538 109.96V111H90.0138V109.96L92.2138 109.72C92.6404 109.667 92.8938 109.56 92.9738 109.4C93.0538 109.24 93.0938 108.693 93.0938 107.76V87.04C93.0938 86.1067 93.0538 85.56 92.9738 85.4C92.8938 85.24 92.6404 85.1333 92.2138 85.08L90.0138 84.88ZM123.09 86.8L115.33 111H112.65L104.85 86.8C104.61 86 104.424 85.5333 104.29 85.4C104.184 85.24 103.917 85.1333 103.49 85.08L101.49 84.88V83.8H110.89V84.88L108.85 85.08C108.424 85.1333 108.184 85.24 108.13 85.4C108.104 85.56 108.21 86.0267 108.45 86.8L115.05 107.52L121.65 86.8C121.917 86.0267 122.024 85.56 121.97 85.4C121.944 85.24 121.704 85.1333 121.25 85.08L119.21 84.88V83.8H126.45V84.88L124.41 85.08C124.144 85.1067 123.944 85.16 123.81 85.24C123.704 85.2933 123.597 85.44 123.49 85.68C123.41 85.8933 123.277 86.2667 123.09 86.8ZM128.295 84.88V83.8H137.935V84.88L135.735 85.08C135.308 85.1333 135.055 85.24 134.975 85.4C134.895 85.56 134.855 86.1067 134.855 87.04V107.76C134.855 108.693 134.895 109.24 134.975 109.4C135.055 109.56 135.308 109.667 135.735 109.72L137.935 109.96V111H128.295V109.96L130.495 109.72C130.922 109.667 131.175 109.56 131.255 109.4C131.335 109.24 131.375 108.693 131.375 107.76V87.04C131.375 86.1067 131.335 85.56 131.255 85.4C131.175 85.24 130.922 85.1333 130.495 85.08L128.295 84.88Z" fill="#F5F5F5"/>
<path d="M129.876 32.1509C126.633 36.3839 120.44 36.8196 112.705 34.4288C110.41 31.2033 109.625 28.4482 109.802 25.9797C109.981 23.4893 111.143 21.2505 112.807 19.0772C113.618 18.0186 115.541 16.4989 117.995 14.8808C120.439 13.2695 123.379 11.5803 126.195 10.18C129.015 8.77763 131.694 7.67303 133.621 7.22095C134.593 6.99295 135.332 6.94152 135.796 7.06847C136.021 7.13002 136.159 7.22751 136.239 7.34641C136.318 7.46522 136.363 7.6407 136.329 7.90528C135.799 12.1172 135.014 17.1028 133.944 21.58C132.87 26.0698 131.519 30.0052 129.876 32.1509Z" fill="#FFE7D4" stroke="#D9D9D9" stroke-width="0.5"/>
<path d="M110.291 21.8992C113.207 24.9768 114.187 29.8076 111.301 35.2644C108.372 36.1159 106.092 36.3181 104.188 35.9384C102.27 35.5557 100.704 34.5758 99.2241 33.0141C98.503 32.253 97.5656 30.5814 96.6201 28.484C95.6796 26.3978 94.7452 23.9231 94.0226 21.5839C93.2986 19.2405 92.7924 17.0499 92.6989 15.5262C92.6516 14.7557 92.7133 14.198 92.8711 13.8765C92.9468 13.7223 93.0344 13.6429 93.1233 13.6061C93.2123 13.5692 93.3432 13.5583 93.5404 13.619C96.7985 14.6224 100.249 15.9104 103.257 17.342C106.271 18.7767 108.818 20.3443 110.291 21.8992Z" fill="#D9D9D9" stroke="#D9D9D9" stroke-width="0.5"/>
<path d="M94.3835 15.3209L110.147 33.4881L109.483 34.0438L94.3835 15.3209Z" fill="#494E5F"/>
<path d="M130.356 12.3102L114.223 33.4052L113.544 32.8679L130.356 12.3102Z" fill="#494E5F"/>
</svg>
