<svg width="461" height="312" viewBox="0 0 461 312" fill="none" xmlns="http://www.w3.org/2000/svg">
<rect width="461" height="312" fill="#494E5F"/>
<rect x="82.5" y="77.1824" width="297.07" height="183.318" stroke="#FFE7D4" stroke-width="3"/>
<path d="M166.357 138.752V140H154.789V138.752L157.429 138.464C157.941 138.4 158.245 138.272 158.341 138.08C158.437 137.856 158.485 137.2 158.485 136.112V110.096L148.501 136.16H145.237L135.205 110.096V136.112C135.205 137.2 135.253 137.856 135.349 138.08C135.445 138.272 135.749 138.4 136.261 138.464L138.901 138.752V140H129.733V138.752L132.373 138.464C132.885 138.4 133.189 138.272 133.285 138.08C133.381 137.856 133.429 137.2 133.429 136.112V111.248C133.429 110.16 133.381 109.52 133.285 109.328C133.189 109.104 132.885 108.96 132.373 108.896L129.733 108.656V107.36H138.517L148.165 132.56L157.813 107.36H166.357V108.656L163.717 108.896C163.205 108.96 162.901 109.104 162.805 109.328C162.709 109.52 162.661 110.16 162.661 111.248V136.112C162.661 137.2 162.709 137.856 162.805 138.08C162.901 138.272 163.205 138.4 163.717 138.464L166.357 138.752ZM177.75 138.752V140H168.63V138.752L171.222 138.464C171.574 138.432 171.83 138.384 171.99 138.32C172.15 138.224 172.294 138.032 172.422 137.744C172.582 137.424 172.774 136.88 172.998 136.112L182.262 107.36H185.286L194.646 136.112C194.87 136.88 195.046 137.424 195.174 137.744C195.334 138.032 195.494 138.224 195.654 138.32C195.814 138.384 196.054 138.432 196.374 138.464L199.014 138.752V140H187.35V138.752L189.99 138.464C190.502 138.4 190.774 138.272 190.806 138.08C190.87 137.856 190.726 137.2 190.374 136.112L188.406 129.968H176.694L174.726 136.112C174.374 137.2 174.214 137.856 174.246 138.08C174.31 138.272 174.598 138.4 175.11 138.464L177.75 138.752ZM177.174 128.432H187.926L182.55 111.728L177.174 128.432ZM201.171 108.656V107.36H214.515C217.651 107.36 220.051 108.112 221.715 109.616C223.411 111.088 224.259 113.056 224.259 115.52V117.008C224.259 118.96 223.715 120.624 222.627 122C221.571 123.344 220.051 124.272 218.067 124.784L224.211 136.112C224.627 136.88 224.931 137.424 225.123 137.744C225.315 138.032 225.491 138.224 225.651 138.32C225.843 138.384 226.099 138.432 226.419 138.464L228.579 138.752V140H221.331L213.747 125.216H209.043V136.112C209.043 137.232 209.091 137.888 209.187 138.08C209.283 138.272 209.587 138.4 210.099 138.464L212.739 138.752V140H201.171V138.752L203.811 138.464C204.323 138.4 204.627 138.272 204.723 138.08C204.819 137.888 204.867 137.232 204.867 136.112V111.248C204.867 110.128 204.819 109.472 204.723 109.28C204.627 109.088 204.323 108.96 203.811 108.896L201.171 108.656ZM214.515 108.896H209.043V123.68H214.515C216.179 123.68 217.475 123.152 218.403 122.096C219.363 121.008 219.843 119.376 219.843 117.2V115.328C219.843 113.152 219.363 111.536 218.403 110.48C217.475 109.424 216.179 108.896 214.515 108.896ZM229.397 107.36H254.933V115.184H253.685L252.293 110.144C252.197 109.76 252.085 109.488 251.957 109.328C251.861 109.136 251.653 109.024 251.333 108.992C251.013 108.928 250.469 108.896 249.701 108.896H244.277V136.112C244.277 137.232 244.325 137.888 244.421 138.08C244.517 138.272 244.821 138.4 245.333 138.464L247.973 138.752V140H236.405V138.752L239.045 138.464C239.557 138.4 239.861 138.272 239.957 138.08C240.053 137.888 240.101 137.232 240.101 136.112V108.896H234.629C233.893 108.896 233.349 108.928 232.997 108.992C232.677 109.024 232.453 109.136 232.325 109.328C232.229 109.488 232.133 109.76 232.037 110.144L230.645 115.184H229.397V107.36ZM257.889 108.656V107.36H269.457V108.656L266.817 108.896C266.305 108.96 266.001 109.088 265.905 109.28C265.809 109.472 265.761 110.128 265.761 111.248V136.112C265.761 137.232 265.809 137.888 265.905 138.08C266.001 138.272 266.305 138.4 266.817 138.464L269.457 138.752V140H257.889V138.752L260.529 138.464C261.041 138.4 261.345 138.272 261.441 138.08C261.537 137.888 261.585 137.232 261.585 136.112V111.248C261.585 110.128 261.537 109.472 261.441 109.28C261.345 109.088 261.041 108.96 260.529 108.896L257.889 108.656ZM293.885 108.656V107.36H303.053V108.656L300.413 108.896C299.901 108.96 299.597 109.104 299.501 109.328C299.405 109.52 299.357 110.16 299.357 111.248V140H297.005L279.533 110.528V136.112C279.533 137.2 279.581 137.856 279.677 138.08C279.773 138.272 280.077 138.4 280.589 138.464L283.229 138.752V140H274.061V138.752L276.701 138.464C277.213 138.4 277.517 138.272 277.613 138.08C277.709 137.856 277.757 137.2 277.757 136.112V111.248C277.757 110.16 277.709 109.52 277.613 109.328C277.517 109.104 277.213 108.96 276.701 108.896L274.061 108.656V107.36H282.365L297.581 133.088V111.248C297.581 110.16 297.533 109.52 297.437 109.328C297.341 109.104 297.037 108.96 296.525 108.896L293.885 108.656ZM313.594 138.752V140H304.474V138.752L307.066 138.464C307.418 138.432 307.674 138.384 307.834 138.32C307.994 138.224 308.138 138.032 308.266 137.744C308.426 137.424 308.618 136.88 308.842 136.112L318.106 107.36H321.13L330.49 136.112C330.714 136.88 330.89 137.424 331.018 137.744C331.178 138.032 331.338 138.224 331.498 138.32C331.658 138.384 331.898 138.432 332.218 138.464L334.858 138.752V140H323.194V138.752L325.834 138.464C326.346 138.4 326.618 138.272 326.65 138.08C326.714 137.856 326.57 137.2 326.218 136.112L324.25 129.968H312.538L310.57 136.112C310.218 137.2 310.058 137.856 310.09 138.08C310.154 138.272 310.442 138.4 310.954 138.464L313.594 138.752ZM313.018 128.432H323.77L318.394 111.728L313.018 128.432Z" fill="#F5F5F5"/>
<path d="M124.44 172.22V170.4H141.31V172.22L137.46 172.64C136.713 172.687 136.27 172.873 136.13 173.2C135.99 173.48 135.92 174.437 135.92 176.07V196.65L153.42 175.65C154.586 174.297 155.17 173.48 155.17 173.2C155.216 172.873 154.843 172.687 154.05 172.64L150.48 172.22V170.4H163.78V172.22L160.21 172.64C159.743 172.687 159.37 172.78 159.09 172.92C158.81 173.013 158.483 173.27 158.11 173.69C157.783 174.063 157.223 174.717 156.43 175.65L145.51 188.81L158.81 212.33C159.416 213.403 159.86 214.173 160.14 214.64C160.466 215.107 160.793 215.41 161.12 215.55C161.446 215.643 161.89 215.713 162.45 215.76L165.81 216.18V218H154.89L141.45 193.71L135.92 200.29V212.33C135.92 213.963 135.99 214.92 136.13 215.2C136.27 215.48 136.713 215.667 137.46 215.76L141.31 216.18V218H124.44V216.18L128.29 215.76C129.036 215.667 129.48 215.48 129.62 215.2C129.76 214.92 129.83 213.963 129.83 212.33V176.07C129.83 174.437 129.76 173.48 129.62 173.2C129.48 172.873 129.036 172.687 128.29 172.64L124.44 172.22ZM169.488 172.29V170.4H188.948C193.522 170.4 197.022 171.497 199.448 173.69C201.922 175.837 203.158 178.707 203.158 182.3V184.47C203.158 187.317 202.365 189.743 200.778 191.75C199.238 193.71 197.022 195.063 194.128 195.81L203.088 212.33C203.695 213.45 204.138 214.243 204.418 214.71C204.698 215.13 204.955 215.41 205.188 215.55C205.468 215.643 205.842 215.713 206.308 215.76L209.458 216.18V218H198.888L187.828 196.44H180.968V212.33C180.968 213.963 181.038 214.92 181.178 215.2C181.318 215.48 181.762 215.667 182.508 215.76L186.358 216.18V218H169.488V216.18L173.338 215.76C174.085 215.667 174.528 215.48 174.668 215.2C174.808 214.92 174.878 213.963 174.878 212.33V176.07C174.878 174.437 174.808 173.48 174.668 173.2C174.528 172.92 174.085 172.733 173.338 172.64L169.488 172.29ZM188.948 172.64H180.968V194.2H188.948C191.375 194.2 193.265 193.43 194.618 191.89C196.018 190.303 196.718 187.923 196.718 184.75V182.02C196.718 178.847 196.018 176.49 194.618 174.95C193.265 173.41 191.375 172.64 188.948 172.64ZM244.948 206.59H246.768V218H213.238V216.18L217.088 215.76C217.835 215.667 218.278 215.48 218.418 215.2C218.558 214.92 218.628 213.963 218.628 212.33V176.07C218.628 174.437 218.558 173.48 218.418 173.2C218.278 172.92 217.835 172.733 217.088 172.64L213.238 172.29V170.4H245.858V181.81H244.108L242.078 174.46C241.938 173.9 241.775 173.503 241.588 173.27C241.448 172.99 241.145 172.827 240.678 172.78C240.212 172.687 239.418 172.64 238.298 172.64H224.718V192.87H234.098C235.218 192.87 236.012 192.847 236.478 192.8C236.945 192.707 237.248 192.543 237.388 192.31C237.575 192.03 237.738 191.61 237.878 191.05L239.208 185.8H241.028V202.18H239.208L237.878 196.93C237.738 196.37 237.575 195.973 237.388 195.74C237.248 195.46 236.945 195.297 236.478 195.25C236.012 195.157 235.218 195.11 234.098 195.11H224.718V215.76H239.138C240.258 215.76 241.052 215.737 241.518 215.69C241.985 215.597 242.288 215.433 242.428 215.2C242.615 214.92 242.778 214.5 242.918 213.94L244.948 206.59ZM253.844 172.29V170.4H270.714V172.29L266.864 172.64C266.117 172.733 265.674 172.92 265.534 173.2C265.394 173.48 265.324 174.437 265.324 176.07V212.33C265.324 213.963 265.394 214.92 265.534 215.2C265.674 215.48 266.117 215.667 266.864 215.76L270.714 216.18V218H253.844V216.18L257.694 215.76C258.441 215.667 258.884 215.48 259.024 215.2C259.164 214.92 259.234 213.963 259.234 212.33V176.07C259.234 174.437 259.164 173.48 259.024 173.2C258.884 172.92 258.441 172.733 257.694 172.64L253.844 172.29ZM311.728 175.65L298.148 218H293.458L279.808 175.65C279.388 174.25 279.061 173.433 278.828 173.2C278.641 172.92 278.175 172.733 277.428 172.64L273.928 172.29V170.4H290.378V172.29L286.808 172.64C286.061 172.733 285.641 172.92 285.548 173.2C285.501 173.48 285.688 174.297 286.108 175.65L297.658 211.91L309.208 175.65C309.675 174.297 309.861 173.48 309.768 173.2C309.721 172.92 309.301 172.733 308.508 172.64L304.938 172.29V170.4H317.608V172.29L314.038 172.64C313.571 172.687 313.221 172.78 312.988 172.92C312.801 173.013 312.615 173.27 312.428 173.69C312.288 174.063 312.055 174.717 311.728 175.65ZM320.836 172.29V170.4H337.706V172.29L333.856 172.64C333.109 172.733 332.666 172.92 332.526 173.2C332.386 173.48 332.316 174.437 332.316 176.07V212.33C332.316 213.963 332.386 214.92 332.526 215.2C332.666 215.48 333.109 215.667 333.856 215.76L337.706 216.18V218H320.836V216.18L324.686 215.76C325.433 215.667 325.876 215.48 326.016 215.2C326.156 214.92 326.226 213.963 326.226 212.33V176.07C326.226 174.437 326.156 173.48 326.016 173.2C325.876 172.92 325.433 172.733 324.686 172.64L320.836 172.29Z" fill="#F5F5F5"/>
<path d="M335.908 72.2019C329.438 80.6491 317.113 81.449 301.893 76.7287C297.333 70.3421 295.755 64.8636 296.109 59.9352C296.465 54.9848 298.773 50.5494 302.052 46.2689C303.67 44.1566 307.473 41.1567 312.284 37.9841C317.085 34.8185 322.86 31.5007 328.391 28.7502C333.926 25.9976 339.201 23.8212 343.008 22.9281C344.92 22.4795 346.42 22.3653 347.392 22.6312C347.87 22.7622 348.199 22.9796 348.397 23.2744C348.594 23.5691 348.683 23.9763 348.613 24.5342C347.572 32.7993 346.031 42.5868 343.929 51.3793C341.825 60.1845 339.166 67.9488 335.908 72.2019Z" fill="#FFE7D4" stroke="#D9D9D9" stroke-width="0.5"/>
<path d="M297.488 51.7915C303.3 57.9255 305.217 67.5437 299.46 78.3586C293.646 80.0589 289.1 80.4747 285.29 79.7146C281.463 78.9514 278.349 76.9969 275.421 73.9069C273.976 72.3817 272.124 69.0689 270.27 64.9571C268.422 60.8564 266.586 55.994 265.166 51.3977C263.745 46.7971 262.745 42.4798 262.56 39.4636C262.467 37.947 262.583 36.8016 262.921 36.114C263.086 35.7768 263.295 35.5698 263.539 35.4686C263.784 35.3673 264.105 35.3552 264.529 35.4859C270.928 37.4567 277.706 39.9869 283.619 42.801C289.539 45.6181 294.567 48.7084 297.488 51.7915Z" fill="#D9D9D9" stroke="#D9D9D9" stroke-width="0.5"/>
<path d="M266.109 39.0478L297.026 74.6781L295.723 75.768L266.109 39.0478Z" fill="#494E5F"/>
<path d="M336.66 33.1433L305.018 74.5156L303.686 73.4619L336.66 33.1433Z" fill="#494E5F"/>
</svg>
