<svg width="85" height="88" viewBox="0 0 85 88" fill="none" xmlns="http://www.w3.org/2000/svg">
<rect y="3" width="85" height="85" fill="#494E5F"/>
<path d="M5.5 28.5H79.5V82.5H5.5V28.5Z" stroke="#FFE7D4" stroke-width="3"/>
<path d="M44.8619 69.96V71H35.2219V69.96L37.4219 69.72C37.8485 69.6667 38.1019 69.56 38.1819 69.4C38.2619 69.2133 38.3019 68.6667 38.3019 67.76V46.08L29.9819 67.8H27.2619L18.9019 46.08V67.76C18.9019 68.6667 18.9419 69.2133 19.0219 69.4C19.1019 69.56 19.3552 69.6667 19.7819 69.72L21.9819 69.96V71H14.3419V69.96L16.5419 69.72C16.9685 69.6667 17.2219 69.56 17.3019 69.4C17.3819 69.2133 17.4219 68.6667 17.4219 67.76V47.04C17.4219 46.1333 17.3819 45.6 17.3019 45.44C17.2219 45.2533 16.9685 45.1333 16.5419 45.08L14.3419 44.88V43.8H21.6619L29.7019 64.8L37.7419 43.8H44.8619V44.88L42.6619 45.08C42.2352 45.1333 41.9819 45.2533 41.9019 45.44C41.8219 45.6 41.7819 46.1333 41.7819 47.04V67.76C41.7819 68.6667 41.8219 69.2133 41.9019 69.4C41.9819 69.56 42.2352 69.6667 42.6619 69.72L44.8619 69.96ZM48.7559 44.84V43.8H58.3959V44.84L56.1959 45.08C55.7693 45.1067 55.5159 45.2133 55.4359 45.4C55.3559 45.56 55.3159 46.1067 55.3159 47.04V58.8L65.3159 46.8C65.9826 46.0267 66.3159 45.56 66.3159 45.4C66.3426 45.2133 66.1293 45.1067 65.6759 45.08L63.6359 44.84V43.8H71.2359V44.84L69.1959 45.08C68.9293 45.1067 68.7159 45.16 68.5559 45.24C68.3959 45.2933 68.2093 45.44 67.9959 45.68C67.8093 45.8933 67.4893 46.2667 67.0359 46.8L60.7959 54.32L68.3959 67.76C68.7426 68.3733 68.9959 68.8133 69.1559 69.08C69.3426 69.3467 69.5293 69.52 69.7159 69.6C69.9026 69.6533 70.1559 69.6933 70.4759 69.72L72.3959 69.96V71H66.1559L58.4759 57.12L55.3159 60.88V67.76C55.3159 68.6933 55.3559 69.24 55.4359 69.4C55.5159 69.56 55.7693 69.6667 56.1959 69.72L58.3959 69.96V71H48.7559V69.96L50.9559 69.72C51.3826 69.6667 51.6359 69.56 51.7159 69.4C51.7959 69.24 51.8359 68.6933 51.8359 67.76V47.04C51.8359 46.1067 51.7959 45.56 51.7159 45.4C51.6359 45.2133 51.3826 45.1067 50.9559 45.08L48.7559 44.84Z" fill="white"/>
<path d="M71.0297 26.0806C68.4184 29.4897 63.4231 29.8541 57.1521 27.9187C55.2999 25.3113 54.6696 23.0886 54.8125 21.101C54.957 19.0915 55.8943 17.2822 57.2434 15.5208C57.8965 14.6681 59.4514 13.4379 61.4447 12.1236C63.4274 10.8162 65.8133 9.4454 68.0984 8.30901C70.3876 7.17063 72.5597 6.27558 74.1193 5.90972C74.9074 5.72484 75.4976 5.68569 75.8621 5.78547C76.0374 5.83344 76.1386 5.90749 76.1952 5.992C76.2517 6.07644 76.2873 6.2066 76.2612 6.41384C75.8304 9.83336 75.1933 13.8802 74.3247 17.5137C73.4531 21.1599 72.3577 24.3468 71.0297 26.0806Z" fill="#FFE7D4" stroke="#D9D9D9" stroke-width="0.5"/>
<path d="M55.1272 17.8149C57.4771 20.295 58.2732 24.1898 55.9494 28.5991C53.5838 29.2847 51.747 29.4451 50.2161 29.1398C48.6702 28.8314 47.4072 28.0421 46.2106 26.7791C45.631 26.1675 44.8725 24.8167 44.1045 23.1131C43.3415 21.4207 42.5834 19.4128 41.9971 17.5149C41.4094 15.6128 40.9996 13.8379 40.924 12.6059C40.8857 11.9814 40.9367 11.5385 41.0594 11.2886C41.1175 11.1702 41.1815 11.1158 41.2399 11.0916C41.2986 11.0673 41.3924 11.0565 41.5451 11.1036C44.1892 11.9179 46.9886 12.963 49.4289 14.1244C51.8757 15.2888 53.937 16.5587 55.1272 17.8149Z" fill="#D9D9D9" stroke="#D9D9D9" stroke-width="0.5"/>
<path d="M42.2445 12.4418L55.0461 27.195L54.5067 27.6463L42.2445 12.4418Z" fill="#494E5F"/>
<path d="M71.4566 9.99685L58.355 27.1277L57.8034 26.6914L71.4566 9.99685Z" fill="#494E5F"/>
</svg>
